<?xml version="1.0" standalone="no"?>
<!DOCTYPE svg PUBLIC "-//W3C//DTD SVG 20010904//EN"
 "http://www.w3.org/TR/2001/REC-SVG-20010904/DTD/svg10.dtd">
<svg version="1.0" xmlns="http://www.w3.org/2000/svg"
 width="1024.000000pt" height="1024.000000pt" viewBox="0 0 1024.000000 1024.000000"
 preserveAspectRatio="xMidYMid meet">
<metadata>
Created by potrace 1.11, written by Peter Selinger 2001-2013
</metadata>
<g transform="translate(0.000000,1024.000000) scale(0.100000,-0.100000)"
fill="#000000" stroke="none">
<path d="M0 9772 l0 -468 35 -13 c19 -7 39 -21 45 -31 11 -20 15 -2784 5
-2801 -4 -5 -24 -9 -46 -9 l-39 0 0 -3225 0 -3225 5120 0 5120 0 0 3650 c0
2988 -2 3650 -13 3650 -22 0 -37 -23 -37 -57 0 -19 -6 -48 -14 -67 -7 -18 -13
-44 -13 -58 0 -14 -10 -35 -23 -48 -26 -26 -50 -79 -43 -97 3 -7 1 -13 -5 -13
-6 0 2 -13 16 -29 53 -57 53 -57 34 -92 -9 -18 -27 -44 -39 -58 -12 -13 -19
-29 -16 -34 3 -6 6 -25 5 -44 -1 -22 6 -41 19 -54 20 -20 20 -49 0 -49 -5 0
-13 -9 -16 -20 -3 -11 -13 -20 -21 -20 -8 0 -14 -4 -14 -10 0 -5 -5 -10 -11
-10 -6 0 -25 -11 -43 -25 -18 -14 -40 -25 -49 -25 -22 0 -20 -66 2 -74 9 -3
23 -10 31 -16 8 -5 27 -14 43 -20 30 -10 38 -47 12 -56 -19 -8 -19 -19 1 -38
14 -15 13 -16 -9 -16 -13 0 -38 -3 -54 -6 -25 -5 -29 -10 -28 -36 1 -19 9 -34
21 -40 24 -14 64 -49 64 -58 0 -4 -55 -10 -122 -13 -76 -3 -140 -12 -168 -22
-29 -11 -63 -15 -95 -12 -61 6 -78 -3 -95 -45 -8 -18 -29 -48 -47 -66 -18 -18
-33 -38 -33 -44 0 -6 -11 -26 -25 -44 -14 -18 -25 -37 -24 -41 1 -4 -2 -17 -6
-27 -6 -13 -4 -21 3 -24 7 -2 12 -12 12 -22 0 -12 17 -25 50 -39 46 -20 68
-51 37 -51 -23 0 -48 -39 -41 -64 5 -20 20 -28 102 -52 53 -15 104 -33 113
-41 8 -7 21 -13 27 -13 21 0 25 -41 5 -62 -71 -81 -121 -108 -200 -108 -87 0
-183 11 -177 21 2 4 -15 8 -38 7 -24 -1 -70 4 -102 12 -54 12 -60 12 -72 -5
-7 -10 -11 -21 -9 -25 3 -4 -18 -10 -45 -14 -28 -4 -50 -11 -50 -16 0 -6 -12
-10 -26 -10 -19 0 -25 -4 -21 -15 4 -8 2 -17 -4 -21 -7 -4 -6 -10 0 -18 6 -7
8 -16 5 -19 -4 -3 19 -17 49 -31 l56 -25 -15 -30 c-9 -17 -23 -31 -33 -31 -21
0 -46 -26 -55 -57 -6 -18 -2 -24 18 -29 13 -3 27 -12 30 -20 6 -15 -2 -44 -13
-44 -4 0 -5 -18 -3 -40 3 -31 9 -41 26 -44 110 -22 226 -51 226 -58 0 -4 -7
-8 -15 -8 -9 0 -21 -5 -28 -10 -7 -6 -28 -24 -47 -40 -19 -16 -41 -30 -49 -30
-8 0 -33 -17 -56 -37 -23 -21 -54 -47 -68 -57 -15 -10 -27 -23 -27 -29 0 -6
-6 -18 -14 -26 -10 -12 -12 -29 -7 -64 5 -26 4 -47 -1 -47 -14 0 -9 -30 6 -36
8 -3 19 -19 25 -35 5 -16 15 -29 21 -29 7 0 10 -6 8 -12 -3 -7 5 -18 16 -24
12 -6 46 -25 76 -41 30 -17 66 -34 80 -38 14 -4 52 -20 85 -35 33 -15 75 -33
93 -40 18 -7 31 -14 29 -17 -4 -3 -198 37 -467 97 -47 10 -148 32 -225 49 -77
16 -183 40 -235 51 -52 12 -147 32 -210 45 -461 94 -735 160 -578 139 l45 -6
-5 31 c-2 17 -8 34 -13 37 -5 3 -9 25 -9 49 0 24 -5 47 -11 50 -6 4 -8 13 -5
21 7 17 -47 74 -71 74 -27 0 -103 41 -103 55 0 14 -17 18 -115 30 -27 3 -71
13 -97 21 -46 15 -48 17 -48 53 0 21 -3 41 -7 45 -5 4 -8 11 -9 14 -2 29 -17
72 -26 72 -5 0 -16 6 -23 14 -8 8 -43 17 -77 21 -81 8 -151 34 -144 52 3 7 -2
13 -12 14 -11 1 -8 4 8 8 25 8 25 8 -10 24 -19 8 -61 21 -92 28 -53 11 -56 13
-39 26 14 9 48 13 116 11 60 -1 99 2 103 9 4 6 16 12 26 14 14 3 21 14 24 38
6 58 -12 78 -84 91 -62 12 -96 30 -56 30 20 0 32 25 32 70 0 32 -34 53 -113
70 -31 7 -57 16 -57 20 0 10 64 40 84 40 9 0 16 3 16 8 0 20 71 31 248 38 172
6 192 8 192 24 0 9 3 20 7 24 4 4 8 15 8 24 0 14 14 18 74 24 75 8 101 19 101
44 0 15 13 17 97 14 81 -2 141 9 146 29 7 29 -7 50 -57 82 -28 17 -62 44 -77
60 -15 16 -31 29 -37 29 -5 0 -12 18 -14 40 -2 22 -1 40 2 40 9 0 9 39 0 45
-11 7 -151 26 -219 30 -35 2 -49 0 -40 -6 11 -7 11 -9 -3 -9 -10 0 -18 -4 -18
-10 0 -5 -19 -10 -42 -10 -54 0 -180 23 -150 28 27 4 44 34 40 70 -3 25 -8 28
-77 39 -41 7 -90 18 -108 24 -41 13 -87 54 -79 68 9 15 -49 37 -119 45 -111
14 -210 45 -144 46 23 1 23 1 5 15 -17 13 -18 15 -3 15 9 0 17 7 17 15 0 8 -5
15 -10 15 -10 0 -35 48 -32 62 1 4 -7 10 -18 13 -22 7 -27 25 -7 26 42 2 72
10 75 19 2 5 13 10 25 11 12 0 18 2 12 5 -5 2 -9 25 -8 51 2 61 -10 76 -76 98
l-54 18 24 18 c13 10 34 19 46 19 12 0 24 4 28 9 3 6 27 13 53 17 50 7 97 41
82 59 -5 6 -3 17 4 26 8 12 32 18 87 20 55 3 80 9 93 22 10 9 30 17 45 17 16
0 40 9 55 21 56 44 16 139 -59 139 -45 0 -155 39 -155 56 0 7 -8 17 -17 22
-31 16 -204 32 -308 30 -70 -2 -107 1 -124 10 -22 13 -20 15 60 54 46 23 86
44 89 47 15 18 74 41 131 51 35 7 98 18 139 25 91 16 110 23 110 41 0 8 5 14
10 14 6 0 10 9 10 21 0 13 10 23 30 30 17 6 30 15 30 21 0 5 6 8 12 6 18 -6
35 33 28 62 -7 29 -29 37 -174 70 -77 18 -100 27 -103 41 -3 11 -9 19 -14 19
-4 0 -22 13 -38 29 -29 28 -29 30 -11 36 22 7 26 20 10 30 -22 14 -8 31 35 44
38 11 45 17 46 40 4 91 -12 109 -106 117 -67 6 -173 28 -183 39 -3 2 -6 19 -7
36 -3 34 -18 49 -52 49 -12 0 -25 5 -28 10 -4 6 14 10 47 10 48 0 55 3 69 28
11 19 14 37 8 61 -6 27 -3 41 14 65 12 17 22 32 23 34 1 1 11 5 24 7 88 17
124 128 45 139 -281 41 -287 42 -264 57 11 8 11 11 -3 20 -10 5 -18 18 -18 29
0 10 -5 20 -11 22 -7 2 -12 29 -13 62 -2 55 -4 61 -41 95 -35 32 -40 41 -39
79 1 23 3 44 5 46 2 2 720 5 1594 6 875 1 1760 4 1968 7 l377 6 0 583 0 584
-5120 0 -5120 0 0 -468z m5805 328 c-3 -5 -25 -10 -48 -9 -36 1 -38 2 -17 9
36 12 72 12 65 0z m-288 -7 c-4 -3 -2 -12 4 -20 9 -10 6 -13 -16 -13 -27 0
-28 0 -10 20 10 11 20 20 23 20 3 0 2 -3 -1 -7z m350 1 c-3 -3 -12 -4 -19 -1
-8 3 -5 6 6 6 11 1 17 -2 13 -5z m3076 -1 c-13 -2 -33 -2 -45 0 -13 2 -3 4 22
4 25 0 35 -2 23 -4z m-3260 -10 c3 -5 -16 -9 -42 -10 -32 -2 -42 0 -31 7 18
12 67 13 73 3z m3140 0 c-13 -2 -35 -2 -50 0 -16 2 -5 4 22 4 28 0 40 -2 28
-4z m-6083 -1728 c-1 -938 2 -1710 6 -1716 4 -7 3 -10 -2 -6 -6 3 -9 -98 -9
-251 0 -237 -1 -257 -17 -260 -17 -3 -18 96 -18 1978 l0 1981 20 -11 c21 -11
21 -12 20 -1715z m2670 1711 c-9 -9 -47 -16 -100 -19 -53 -4 -74 -3 -55 2 17
5 50 9 75 11 25 1 54 5 65 10 29 12 31 12 15 -4z m2103 7 c-7 -2 -19 -2 -25 0
-7 3 -2 5 12 5 14 0 19 -2 13 -5z m1160 0 c-13 -2 -35 -2 -50 0 -16 2 -5 4 22
4 28 0 40 -2 28 -4z m-5748 -32 c22 -10 67 -25 100 -35 33 -10 69 -21 80 -26
l20 -9 -20 0 c-11 0 -69 15 -130 34 -60 19 -118 35 -127 35 -21 0 -24 16 -5
23 14 5 27 1 82 -22z m82 23 c-3 -3 -12 -4 -19 -1 -8 3 -5 6 6 6 11 1 17 -2
13 -5z m5506 -1 c-7 -2 -19 -2 -25 0 -7 3 -2 5 12 5 14 0 19 -2 13 -5z m-423
-13 c-8 -5 -22 -9 -30 -9 -10 0 -8 3 5 9 27 12 43 12 25 0z m-5523 -11 c-9 -6
-15 -14 -12 -20 4 -5 0 -9 -7 -9 -8 0 -9 -3 -3 -8 16 -11 36 -52 26 -52 -5 0
-23 -13 -40 -29 -17 -16 -35 -31 -39 -33 -12 -5 -69 -93 -77 -118 -13 -42 -23
-4 -28 117 -6 145 -6 145 97 154 39 3 78 6 86 7 11 1 10 -1 -3 -9z m2621 -6
c-10 -2 -28 -2 -40 0 -13 2 -5 4 17 4 22 1 32 -1 23 -4z m1769 1 c-3 -3 -12
-4 -19 -1 -8 3 -5 6 6 6 11 1 17 -2 13 -5z m-4122 -14 c3 -5 1 -10 -4 -10 -6
0 -11 5 -11 10 0 6 2 10 4 10 3 0 8 -4 11 -10z m5036 -8 c-13 -2 -27 0 -32 5
-6 6 3 7 23 4 28 -4 29 -6 9 -9z m122 11 c-13 -2 -35 -2 -50 0 -16 2 -5 4 22
4 28 0 40 -2 28 -4z m1747 3 c0 -3 -4 -8 -10 -11 -5 -3 -10 -1 -10 4 0 6 5 11
10 11 6 0 10 -2 10 -4z m-3027 -13 c-7 -2 -19 -2 -25 0 -7 3 -2 5 12 5 14 0
19 -2 13 -5z m2920 0 c-13 -2 -33 -2 -45 0 -13 2 -3 4 22 4 25 0 35 -2 23 -4z
m-1890 -10 c-13 -2 -33 -2 -45 0 -13 2 -3 4 22 4 25 0 35 -2 23 -4z m-4906
-65 c-2 -13 -4 -3 -4 22 0 25 2 35 4 23 2 -13 2 -33 0 -45z m3560 56 c-3 -3
-12 -4 -19 -1 -8 3 -5 6 6 6 11 1 17 -2 13 -5z m1143 -4 c-14 -4 -56 -8 -95
-7 l-70 0 60 7 c33 4 76 7 95 7 31 1 32 0 10 -7z m1698 3 c-10 -2 -28 -2 -40
0 -13 2 -5 4 17 4 22 1 32 -1 23 -4z m-2923 -8 c-23 -8 -83 -10 -79 -3 3 4 24
8 47 7 23 0 38 -2 32 -4z m-4367 -17 c8 -8 12 -56 12 -150 l0 -139 -32 5
c-102 16 -131 17 -138 6 -9 -15 -237 -29 -250 -16 -15 15 -12 4 11 -43 11 -24
18 -45 16 -47 -2 -3 -12 11 -20 29 -9 19 -37 60 -62 92 -25 32 -45 63 -45 68
0 6 -18 41 -40 79 -42 73 -45 79 -32 76 11 -3 176 12 312 27 239 28 253 28
268 13z m5390 5 c-16 -2 -40 -2 -55 0 -16 2 -3 4 27 4 30 0 43 -2 28 -4z
m-1313 -13 c4 -6 -13 -10 -42 -11 -26 0 -64 -2 -83 -3 -94 -7 -240 -9 -247 -3
-3 4 36 8 88 8 52 1 126 5 164 9 107 11 113 11 120 0z m1163 3 c-10 -2 -26 -2
-35 0 -10 3 -2 5 17 5 19 0 27 -2 18 -5z m-1063 -13 c3 -5 2 -10 -4 -10 -5 0
-13 5 -16 10 -3 6 -2 10 4 10 5 0 13 -4 16 -10z m950 5 c-5 -2 -84 -9 -175
-14 -240 -16 -547 -39 -607 -47 -45 -5 -53 -4 -53 10 0 9 5 16 10 16 6 0 10
-5 10 -11 0 -7 7 -8 18 -4 28 12 71 17 167 19 112 3 296 15 395 25 76 8 254
12 235 6z m2633 -25 c10 -17 10 -20 -4 -20 -8 0 -12 5 -9 10 3 6 1 10 -4 10
-6 0 -11 5 -11 10 0 17 14 11 28 -10z m-8468 -67 c-16 -32 -43 -80 -60 -108
-17 -27 -44 -75 -61 -105 -17 -30 -43 -77 -59 -105 -30 -52 -37 -85 -20 -85 6
0 15 -11 19 -24 12 -31 53 -36 306 -36 168 0 205 -3 215 -15 7 -8 18 -15 24
-15 6 0 21 -7 33 -15 l22 -16 -20 -35 c-13 -23 -19 -51 -18 -84 2 -41 6 -50
27 -59 20 -10 22 -14 11 -27 -7 -9 -23 -20 -36 -25 -19 -7 -23 -16 -23 -48 0
-29 -7 -47 -27 -69 -16 -17 -41 -44 -56 -61 -16 -17 -33 -31 -38 -31 -19 0
-66 -42 -64 -58 1 -23 35 -62 63 -73 19 -7 22 -16 22 -68 0 -34 -5 -63 -11
-67 -8 -4 -5 -11 9 -18 16 -9 -12 -10 -123 -8 l-144 4 -59 -36 c-33 -20 -64
-36 -69 -36 -14 0 -63 -73 -63 -93 0 -10 8 -17 18 -17 10 0 43 -7 72 -16 47
-14 52 -18 38 -28 -11 -8 -16 -24 -14 -48 4 -48 10 -56 56 -69 22 -7 38 -14
35 -17 -2 -3 0 -13 5 -23 11 -19 38 -26 125 -33 28 -2 83 -13 124 -24 l73 -19
-26 -20 c-14 -12 -26 -28 -26 -37 0 -9 -8 -16 -17 -16 -16 -1 -16 -2 1 -15 11
-8 18 -16 15 -18 -14 -10 -63 -27 -78 -27 -9 0 -28 -14 -41 -32 -22 -30 -22
-32 -4 -45 10 -8 18 -20 16 -28 -3 -15 7 -17 152 -40 74 -12 102 -13 112 -4
16 13 72 5 127 -19 36 -15 37 -17 37 -69 0 -40 4 -53 15 -53 8 0 15 -4 15 -8
0 -5 10 -14 23 -21 18 -9 0 -10 -88 -7 -111 5 -159 1 -150 -14 3 -4 -16 -14
-41 -21 -52 -16 -67 -40 -55 -85 6 -23 15 -30 47 -37 21 -4 59 -12 84 -17 25
-5 96 -17 158 -27 l112 -16 0 -228 c0 -202 -7 -268 -23 -227 -4 9 -6 7 -6 -3
-1 -14 -14 -16 -100 -13 -79 4 -101 1 -111 -11 -7 -8 -23 -15 -36 -15 -12 0
-25 -4 -29 -9 -3 -5 -27 -17 -53 -25 -39 -13 -50 -22 -60 -50 -7 -18 -9 -41
-6 -51 4 -10 1 -20 -6 -25 -22 -14 -18 -49 7 -65 13 -9 23 -21 23 -29 0 -7 27
-21 63 -31 81 -24 81 -24 60 -41 -17 -13 -17 -14 0 -8 28 10 11 -18 -26 -43
-18 -13 -44 -23 -58 -23 -42 0 -73 -12 -57 -21 10 -7 10 -9 1 -9 -7 0 -13 -8
-13 -18 0 -13 13 -21 46 -30 39 -11 44 -15 34 -27 -7 -9 -10 -31 -8 -52 3 -21
0 -49 -7 -63 -29 -59 -28 -66 12 -78 67 -20 193 -34 270 -31 82 4 97 -5 63
-36 -19 -17 -28 -17 -232 -1 -117 9 -278 21 -358 26 -80 6 -161 12 -180 15
-19 2 -76 7 -125 10 -65 5 -98 12 -115 25 l-25 19 -5 1763 c-3 1166 -2 1769 5
1781 13 23 29 27 209 47 83 10 152 18 154 19 1 0 -11 -25 -28 -56z m145 -66
c25 -49 61 -112 80 -140 19 -29 35 -55 35 -60 0 -5 11 -23 25 -41 14 -18 25
-35 25 -37 0 -3 -109 -6 -242 -7 -134 -1 -238 1 -233 5 12 9 60 74 66 88 2 6
37 65 76 131 40 66 76 135 79 153 7 32 7 32 25 14 10 -10 38 -58 64 -106z
m1920 113 c3 -5 22 -10 42 -10 43 0 39 -9 -7 -16 -30 -5 -60 9 -60 27 0 12 17
11 25 -1z m4345 -4 c0 -11 -19 -15 -25 -6 -3 5 1 10 9 10 9 0 16 -2 16 -4z
m830 -17 c58 -5 114 -10 125 -11 11 -1 103 3 205 8 102 5 207 8 233 6 26 -1
46 1 44 6 -3 4 113 7 256 8 296 1 292 0 -183 -21 -190 -9 -417 -20 -505 -25
-208 -13 -335 -13 -335 0 0 6 13 10 29 10 17 0 33 5 36 10 4 6 -8 10 -28 10
-32 0 -54 -19 -49 -42 1 -5 -29 -8 -67 -8 -37 0 -90 -3 -117 -6 -65 -9 -53 1
53 42 74 28 97 33 143 28 30 -2 102 -9 160 -15z m-5643 -66 c-2 -16 -4 -3 -4
27 0 30 2 43 4 28 2 -16 2 -40 0 -55z m2261 70 c-15 -2 -42 -2 -60 0 -18 2 -6
4 27 4 33 0 48 -2 33 -4z m2415 0 c-7 -2 -21 -2 -30 0 -10 3 -4 5 12 5 17 0
24 -2 18 -5z m47 -3 c0 -5 -2 -10 -4 -10 -3 0 -8 5 -11 10 -3 6 -1 10 4 10 6
0 11 -4 11 -10z m-217 -7 c-13 -2 -33 -2 -45 0 -13 2 -3 4 22 4 25 0 35 -2 23
-4z m-150 -10 c-7 -2 -19 -2 -25 0 -7 3 -2 5 12 5 14 0 19 -2 13 -5z m70 0
c-7 -2 -21 -2 -30 0 -10 3 -4 5 12 5 17 0 24 -2 18 -5z m321 -12 c3 -5 -1 -11
-9 -14 -9 -4 -12 -1 -8 9 6 16 10 17 17 5z m-731 -8 c-18 -2 -48 -2 -65 0 -18
2 -4 4 32 4 36 0 50 -2 33 -4z m-1513 -23 c0 -5 -4 -10 -10 -10 -5 0 -10 5
-10 10 0 6 5 10 10 10 6 0 10 -4 10 -10z m-65 -10 c-54 -10 -342 -24 -334 -15
8 7 210 22 309 22 58 1 61 0 25 -7z m2335 0 c0 -6 -26 -9 -62 -8 l-63 1 60 7
c33 4 61 7 63 8 1 1 2 -2 2 -8z m-1367 -17 c-8 -25 -33 -43 -57 -43 -16 0 -14
4 12 16 17 9 32 23 32 30 0 8 4 14 10 14 5 0 7 -8 3 -17z m-1363 -3 c0 -5 -8
-10 -17 -10 -10 0 -28 -3 -40 -6 -13 -4 -23 -2 -23 4 0 9 17 14 68 21 6 0 12
-3 12 -9z m-92 -16 c-8 -7 -128 -7 -136 0 -3 4 28 6 68 6 40 0 71 -3 68 -6z
m-208 -14 c-34 -11 -60 -11 -35 0 11 5 29 8 40 8 16 0 15 -2 -5 -8z m2190 0
c-129 -12 -332 -19 -325 -12 7 7 212 18 340 19 l70 0 -85 -7z m153 3 c-7 -2
-21 -2 -30 0 -10 3 -4 5 12 5 17 0 24 -2 18 -5z m-2519 -11 c3 -5 -1 -9 -9 -9
-8 0 -12 4 -9 9 3 4 7 8 9 8 2 0 6 -4 9 -8z m1459 -21 c4 -16 -10 -19 -162
-25 -423 -16 -514 -17 -306 0 64 5 83 9 65 15 -21 6 -17 7 20 9 43 2 43 3 15
11 -27 7 -26 8 10 5 22 -2 51 -7 65 -11 19 -5 21 -4 10 4 -11 7 10 11 80 13
148 5 197 -1 203 -21z m80 22 c-7 -2 -19 -2 -25 0 -7 3 -2 5 12 5 14 0 19 -2
13 -5z m180 0 c-7 -2 -21 -2 -30 0 -10 3 -4 5 12 5 17 0 24 -2 18 -5z m-3286
-65 c-2 -13 -4 -3 -4 22 0 25 2 35 4 23 2 -13 2 -33 0 -45z m1613 12 c0 -5 -7
-10 -16 -10 -8 0 -12 5 -9 10 3 6 10 10 16 10 5 0 9 -4 9 -10z m817 -6 c-3 -3
-45 -8 -94 -10 -48 -2 -221 -11 -383 -20 -199 -10 -308 -13 -335 -6 l-40 9 55
0 c30 0 129 4 220 9 91 5 207 8 258 6 55 -1 92 2 92 8 0 6 47 10 117 10 64 0
114 -3 110 -6z m-2854 -101 c15 -31 15 -33 -4 -33 -15 0 -19 7 -19 37 0 41 1
41 23 -4z m423 -3500 c-9 -9 -46 23 -41 34 2 7 1 13 -3 13 -4 0 -8 456 -9
1013 -2 1173 -3 1258 -15 1251 -4 -3 -8 2 -8 10 0 9 5 16 10 16 6 0 10 7 10
16 0 8 -4 12 -10 9 -5 -3 -10 -2 -10 4 0 5 5 11 11 13 13 4 19 70 12 123 -5
31 -8 35 -14 20 -4 -11 -8 29 -8 93 -1 68 3 111 8 107 12 -7 21 7 23 38 1 14
7 23 14 20 13 -5 23 74 26 221 2 56 4 -596 5 -1448 2 -852 1 -1551 -1 -1553z
m-63 708 c3 -143 1 -238 -4 -230 -8 14 -13 487 -5 478 2 -2 6 -114 9 -248z
m-3 -291 c0 -22 -2 -40 -4 -40 -2 0 -6 18 -8 40 -2 22 0 40 4 40 5 0 8 -18 8
-40z m57 -462 c-3 -8 -6 -5 -6 6 -1 11 2 17 5 13 3 -3 4 -12 1 -19z m-2 -296
c-12 -12 -13 10 -7 143 l7 140 3 -139 c1 -76 0 -141 -3 -144z m-18 111 c-3
-10 -5 -4 -5 12 0 17 2 24 5 18 2 -7 2 -21 0 -30z m23 -144 c0 -11 -4 -17 -10
-14 -5 3 -10 13 -10 21 0 8 5 14 10 14 6 0 10 -9 10 -21z m0 -39 c0 -5 -5 -10
-11 -10 -5 0 -7 5 -4 10 3 6 8 10 11 10 2 0 4 -4 4 -10z m1864 -44 c-6 -19 -5
-20 11 -6 17 14 18 14 5 -10 -18 -33 -69 -84 -77 -76 -3 3 6 28 21 56 15 27
24 54 21 60 -3 6 1 7 10 4 11 -4 14 -13 9 -28z m-87 -41 c-55 -51 -100 -60
-129 -26 -15 18 -14 19 26 25 24 4 65 15 92 26 27 10 51 19 54 19 3 0 -17 -20
-43 -44z m168 -35 c3 -5 15 -10 26 -10 10 0 19 -4 19 -10 0 -16 -47 -12 -64 6
-9 8 -16 17 -16 20 0 8 29 4 35 -6z m582 -37 c2 -6 -10 -19 -26 -29 -17 -10
-31 -25 -31 -34 -1 -8 -7 -26 -15 -40 l-14 -25 -1 28 c0 61 73 144 87 100z
m-532 -92 c-20 -62 -33 -73 -76 -64 l-33 6 38 11 c26 7 40 18 42 30 4 27 38
89 42 76 2 -5 -4 -32 -13 -59z m-200 -41 c-11 -5 -27 -9 -35 -9 -13 -1 -13 0
0 9 8 5 24 9 35 9 l20 0 -20 -9z m-115 -40 c-19 -11 -44 -19 -55 -19 -13 0 -6
6 20 19 52 25 81 25 35 0z m1456 -36 c-3 -8 4 -24 17 -37 12 -12 29 -44 37
-72 l16 -49 76 -2 c72 -1 82 -4 149 -44 66 -40 139 -104 139 -123 0 -4 9 -21
21 -36 14 -20 23 -50 26 -95 l6 -67 -52 21 c-28 11 -71 20 -95 20 -50 0 -58 8
-76 72 -14 52 -28 62 -65 48 -29 -11 -31 -19 -10 -46 8 -10 15 -26 15 -35 0
-15 -4 -15 -42 -3 -24 8 -64 16 -90 20 -27 3 -48 10 -48 17 -1 7 -9 30 -20 52
-11 22 -20 45 -20 50 0 6 -9 20 -19 33 -36 42 -80 24 -116 -48 -14 -28 -27
-50 -29 -50 -2 0 -39 9 -84 20 -44 11 -87 17 -96 14 -24 -9 -20 12 20 85 45
83 55 95 123 133 103 59 189 117 195 133 3 9 11 13 17 10 6 -4 8 -13 5 -21z
m-679 -41 c-3 -10 -5 -2 -5 17 0 19 2 27 5 18 2 -10 2 -26 0 -35z m49 -55 c34
-26 54 -51 48 -58 -3 -2 -8 0 -12 5 -4 6 -24 25 -45 43 -42 36 -35 44 9 10z
m100 -100 l19 -21 -27 18 c-29 18 -34 25 -20 25 5 0 17 -10 28 -22z m59 -46
c24 -20 55 -63 55 -75 0 -15 -42 21 -66 57 -26 39 -22 46 11 18z m445 -78 c12
-26 18 -53 15 -65 -6 -18 -12 -20 -43 -14 -44 8 -52 13 -52 27 0 12 48 98 55
98 3 0 14 -20 25 -46z"/>
<path d="M8235 9874 l-30 -15 28 6 c17 3 27 1 27 -7 0 -7 5 -6 13 4 6 9 19 18
27 21 9 3 4 5 -10 5 -14 0 -38 -6 -55 -14z"/>
<path d="M8400 9869 c0 -7 19 -8 58 -3 77 9 78 14 4 14 -38 0 -62 -4 -62 -11z"/>
<path d="M5738 9743 c7 -3 16 -2 19 1 4 3 -2 6 -13 5 -11 0 -14 -3 -6 -6z"/>
<path d="M5533 9723 c9 -2 25 -2 35 0 9 3 1 5 -18 5 -19 0 -27 -2 -17 -5z"/>
<path d="M4568 9673 c7 -3 16 -2 19 1 4 3 -2 6 -13 5 -11 0 -14 -3 -6 -6z"/>
<path d="M2772 8740 c-1 -39 2 -59 7 -50 4 8 5 38 1 65 l-7 50 -1 -65z"/>
</g>
</svg>
